<?xml version="1.0" encoding="UTF-8" standalone="no"?>
<!DOCTYPE svg PUBLIC "-//W3C//DTD SVG 1.1//EN"
 "http://www.w3.org/Graphics/SVG/1.1/DTD/svg11.dtd">
<!-- Generated by graphviz version 2.38.0 (20140413.2041)
 -->
<!-- Title: %3 Pages: 1 -->
<svg width="1172pt" height="80pt"
 viewBox="0.00 0.00 1172.32 79.87" xmlns="http://www.w3.org/2000/svg" xmlns:xlink="http://www.w3.org/1999/xlink">
<g id="graph0" class="graph" transform="scale(1 1) rotate(0) translate(4.22 75.74)">
<title>%3</title>
<polygon fill="white" stroke="none" points="-4.22,4.13 -4.22,-75.74 1168.1,-75.74 1168.1,4.13 -4.22,4.13"/>
<!-- https://www.lipsum.com/ -->
<g id="node1" class="node"><title>https://www.lipsum.com/</title>
<ellipse fill="none" stroke="black" cx="197.28" cy="-26.87" rx="197.5" ry="27"/>
<text text-anchor="middle" x="197.28" y="-30.67" font-family="Times,serif" font-size="14.00">Lorem Ipsum &#45; All the facts &#45; Lipsum generator</text>
<text text-anchor="middle" x="197.28" y="-15.67" font-family="Times,serif" font-size="14.00">https://www.lipsum.com/</text>
</g>
<!-- https://www.lipsum.com/&#45;&gt;https://www.lipsum.com/ -->
<g id="edge1" class="edge"><title>https://www.lipsum.com/&#45;&gt;https://www.lipsum.com/</title>
<path fill="none" stroke="black" d="M117.62,-51.787C111.1,-62.536 137.65,-71.74 197.28,-71.74 238.28,-71.74 263.64,-67.39 273.37,-61.178"/>
<polygon fill="black" stroke="black" points="276.658,-62.3781 276.94,-51.787 270.115,-59.8907 276.658,-62.3781"/>
</g>
<!-- https://www.lipsum.com/banners/ -->
<g id="node2" class="node"><title>https://www.lipsum.com/banners/</title>
<ellipse fill="none" stroke="black" cx="627.85" cy="-26.87" rx="197.5" ry="27"/>
<text text-anchor="middle" x="627.85" y="-30.67" font-family="Times,serif" font-size="14.00">Lorem Ipsum &#45; All the facts &#45; Lipsum generator</text>
<text text-anchor="middle" x="627.85" y="-15.67" font-family="Times,serif" font-size="14.00">https://www.lipsum.com/banners/</text>
</g>
<!-- https://www.lipsum.com/&#45;&gt;https://www.lipsum.com/banners/ -->
<g id="edge2" class="edge"><title>https://www.lipsum.com/&#45;&gt;https://www.lipsum.com/banners/</title>
<path fill="none" stroke="black" d="M394.69,-26.87C403.24,-26.87 411.83,-26.87 420.39,-26.87"/>
<polygon fill="black" stroke="black" points="420.44,-30.3701 430.44,-26.87 420.44,-23.3701 420.44,-30.3701"/>
</g>
<!-- https://www.lipsum.com/banners.tar.gz -->
<g id="node3" class="node"><title>https://www.lipsum.com/banners.tar.gz</title>
<ellipse fill="none" stroke="black" cx="1012.6" cy="-26.87" rx="151.5" ry="18"/>
<text text-anchor="middle" x="1012.6" y="-23.17" font-family="Times,serif" font-size="14.00">https://www.lipsum.com/banners.tar.gz</text>
</g>
<!-- https://www.lipsum.com/banners/&#45;&gt;https://www.lipsum.com/banners.tar.gz -->
<g id="edge3" class="edge"><title>https://www.lipsum.com/banners/&#45;&gt;https://www.lipsum.com/banners.tar.gz</title>
<path fill="none" stroke="black" d="M825.25,-26.87C833.8,-26.87 842.33,-26.87 850.78,-26.87"/>
<polygon fill="black" stroke="black" points="851.05,-30.3701 861.05,-26.87 851.05,-23.3701 851.05,-30.3701"/>
</g>
</g>
</svg>
